{"title":"The Last Song 2010 DVDrip English Klam","uid":8647282,"size":1728525817,"categoryP":"video","categoryS":"movies","magnet":"?xt=urn:btih:fb2a159a6129d507802681b3335d0114145f74a8&amp;dn=The+Last+Song+2010+DVDrip+English+Klam&amp;tr=udp%3A%2F%2Ftracker.openbittorrent.com%3A80&amp;tr=udp%3A%2F%2Fopen.demonii.com%3A1337&amp;tr=udp%3A%2F%2Ftracker.coppersurfer.tk%3A6969&amp;tr=udp%3A%2F%2Fexodus.desync.com%3A6969","seeders":7,"leechers":1,"uploader":"Klambake","files":-1,"time":1373022297,"description":"With: Miley Cyrus, Greg Kinnear and Liam Hemsworth\n\nHet leven van de 17-jarige Veronica 'Ronnie' Miller wordt ondersteboven gekeerd als haar ouders gaan scheiden. Haar vader verhuisde van New York naar Tybee Island. Veronica is woedend, maar haar moeder vindt het na drie jaar welletjes geweest en vindt dat ze de zomer maar met haar vader moet doorbrengen. Ze hebben bijna niets gemeen, behalve hun liefde voor muziek.\n\nA drama centered on a rebellious girl who is sent to a Southern beach town for the summer to stay with her father. Through their mutual love of music, the estranged duo learn to reconnect. \n &lt;a href=&quot;\nhttp://www.imdb.com/title/tt1294226&quot; rel=&quot;nofollow&quot; target=&quot;_NEW&quot;&gt;\nhttp://www.imdb.com/title/tt1294226&lt;/a&gt;\t\n\n------------------------ Dutch Friends ------------------------\n---------------------------------------------------------------\n- Bezoek ook eens mijn vrienden op: &lt;a href=&quot; http://www.Film-Test.nl&quot; rel=&quot;nofollow&quot; target=&quot;_NEW&quot;&gt; http://www.Film-Test.nl&lt;/a&gt; --\n----- voor mijn Nederlandse Sync. ondertitels ---- en meer ----\n------- http://www.Film-Test.nl ---- Over Films en meer -------\n---------------------------------------------------------------\n\nGeneral:\n\nComplete name                    : The Last SongThe Last Song.avi\nFormat                           : AVI\nFormat/Info                      : Audio Video Interleave\nFile size                        : 1.61 GiB\nDuration                         : 1h 47mn\nOverall bit rate                 : 2 142 Kbps\n\nVideo:\n\nFormat                           : MPEG-4 Visual\nFormat profile                   : Simple@L3\nFormat settings, BVOP            : No\nFormat settings, QPel            : No\nFormat settings, GMC             : No warppoints\nFormat settings, Matrix          : Default (H.263)\nCodec ID                         : XVID\nCodec ID/Hint                    : XviD\nDuration                         : 1h 47mn\nBit rate                         : 1 747 Kbps\nWidth                            : 720 pixels\nHeight                           : 304 pixels\nDisplay aspect ratio             : 2.35:1\nFrame rate                       : 25.000 fps\nColor space                      : YUV\nChroma subsampling               : 4:2:0\nBit depth                        : 8 bits\nScan type                        : Progressive\nCompression mode                 : Lossy\nBits/(Pixel*Frame)               : 0.319\nStream size                      : 1.31 GiB (82%)\nWriting library                  : XviD 1.1.2 (UTC 2006-11-01)\n\nAudio:\n\nFormat                           : AC-3\nFormat/Info                      : Audio Coding 3\nMode extension                   : CM (complete main)\nCodec ID                         : 2000\nDuration                         : 1h 47mn\nBit rate mode                    : Constant\nBit rate                         : 384 Kbps\nChannel(s)                       : 6 channels\nChannel positions                : Front: L C R, Side: L R, LFE\nSampling rate                    : 48.0 KHz\nBit depth                        : 16 bits\nCompression mode                 : Lossy\nStream size                      : 296 MiB (18%)\nAlignment                        : Aligned on interleaves\nInterleave, duration             : 32 ms (0.80 video frame)\nInterleave, preload duration     : 64 ms","torrent":{"xt":"urn:btih:fb2a159a6129d507802681b3335d0114145f74a8","amp;dn":"The+Last+Song+2010+DVDrip+English+Klam","amp;tr":["udp%3A%2F%2Ftracker.openbittorrent.com%3A80","udp%3A%2F%2Fopen.demonii.com%3A1337","udp%3A%2F%2Ftracker.coppersurfer.tk%3A6969","udp%3A%2F%2Fexodus.desync.com%3A6969"],"infoHash":"fb2a159a6129d507802681b3335d0114145f74a8","infoHashBuffer":{"type":"Buffer","data":[251,42,21,154,97,41,213,7,128,38,129,179,51,93,1,20,20,95,116,168]},"announce":[],"urlList":[]}}